<svg class="diagram-root" style="background: #f5f6f6" xmlns="http://www.w3.org/2000/svg" xmlns:xlink="http://www.w3.org/1999/xlink"><style>.diagram-root { font-family: "Helvetica Neue", sans-serif; font-size: 12px; } .t { overflow: visible; } .t-bg { y: 40; fill: #fff;   } .th { fill: #005aa0;   } .tht { fill: #fff; font-size: 14px;  } .tf { fill: #323c46; overflow: visible; } .tf.pk { fill: #005aa0; font-weight: bold; } .tf.fk { font-weight: bold; } .ty { fill: #adb1b5; font-weight: normal; text-anchor: end; } .r { fill: transparent; stroke: #c3c3c3; stroke-width: 1; } .l { stroke: 1; } .i { fill: #c2c7ce; stroke: #c2c7ce; } .i.ix { fill: #afb3b6; stroke: #000; } .fa { fill: transparent; overflow: visible; } .fa .bg.hover { fill: #f7f7f7; } .c { cy: 12; r: 4; stroke: #d2d2dc; fill: #d2d2dc; } .hr { fill: transparent; stroke: #323c46; stroke-opacity: 0.035; stroke-width: 13; } .dc { stroke: #fa5a3c; fill: #fa5a3c; } .x { stroke: white; stroke-width: 1; } .hl .th { fill: #1b9bff; } .hl .tht {  } .fhl .bg { fill: #e7f4ff; } .fhls .bg {  } .r.hl { stroke: #1b9bff; } .dim { opacity: 0.25; }</style><g class="drawing-wrapper" transform="translate(9.499999999999988, 35.833333333333336) scale(1,1)"><g class="rs"><path d="M 149.89 274.5 m -1, 0 a 1,1 0 1,0 2,0 a 1,1 0 1,0 -2,0 M 149.89 274.5 m -0.5, 0 a 0.5,0.5 0 1,0 1,0 a 0.5,0.5 0 1,0 -1,0  M149.89 274.5 L149.89 274.5 161.89 274.5 M 149.89 280.5 m -1, 0 a 1,1 0 1,0 2,0 a 1,1 0 1,0 -2,0 M 149.89 280.5 m -0.5, 0 a 0.5,0.5 0 1,0 1,0 a 0.5,0.5 0 1,0 -1,0  M149.89 280.5 L149.89 280.5 156.89 274.5 149.89 268.5 M 149.89 268.5 m -1, 0 a 1,1 0 1,0 2,0 a 1,1 0 1,0 -2,0 M 149.89 268.5 m -0.5, 0 a 0.5,0.5 0 1,0 1,0 a 0.5,0.5 0 1,0 -1,0  M161.89 274.5 C 211.89 274.5, 219.504 51.17, 149.2 51.17 M 137.2 51.17 m -1, 0 a 1,1 0 1,0 2,0 a 1,1 0 1,0 -2,0 M 137.2 51.17 m -0.5, 0 a 0.5,0.5 0 1,0 1,0 a 0.5,0.5 0 1,0 -1,0  M137.2 51.17 L137.2 51.17 149.2 51.17 M143.2 57.17 L143.2 57.17 143.2 45.17" id="h590229396" class="r"></path><path d="M 149.89 299.5 m -1, 0 a 1,1 0 1,0 2,0 a 1,1 0 1,0 -2,0 M 149.89 299.5 m -0.5, 0 a 0.5,0.5 0 1,0 1,0 a 0.5,0.5 0 1,0 -1,0  M149.89 299.5 L149.89 299.5 161.89 299.5 M 149.89 305.5 m -1, 0 a 1,1 0 1,0 2,0 a 1,1 0 1,0 -2,0 M 149.89 305.5 m -0.5, 0 a 0.5,0.5 0 1,0 1,0 a 0.5,0.5 0 1,0 -1,0  M149.89 305.5 L149.89 305.5 156.89 299.5 149.89 293.5 M 149.89 293.5 m -1, 0 a 1,1 0 1,0 2,0 a 1,1 0 1,0 -2,0 M 149.89 293.5 m -0.5, 0 a 0.5,0.5 0 1,0 1,0 a 0.5,0.5 0 1,0 -1,0  M161.89 299.5 Q 209.05 299.5, 256.2 177 T 350.5 54.5 M 362.5 54.5 m -1, 0 a 1,1 0 1,0 2,0 a 1,1 0 1,0 -2,0 M 362.5 54.5 m -0.5, 0 a 0.5,0.5 0 1,0 1,0 a 0.5,0.5 0 1,0 -1,0  M362.5 54.5 L362.5 54.5 350.5 54.5 M356.5 60.5 L356.5 60.5 356.5 48.5" id="h3883713910" class="r"></path><path d="M 337.5 317.83000000000004 m -1, 0 a 1,1 0 1,0 2,0 a 1,1 0 1,0 -2,0 M 337.5 317.83000000000004 m -0.5, 0 a 0.5,0.5 0 1,0 1,0 a 0.5,0.5 0 1,0 -1,0  M337.5 317.83000000000004 L337.5 317.83000000000004 325.5 317.83000000000004 M 337.5 323.83000000000004 m -1, 0 a 1,1 0 1,0 2,0 a 1,1 0 1,0 -2,0 M 337.5 323.83000000000004 m -0.5, 0 a 0.5,0.5 0 1,0 1,0 a 0.5,0.5 0 1,0 -1,0  M337.5 323.83000000000004 L337.5 323.83000000000004 330.5 317.83000000000004 337.5 311.83000000000004 M 337.5 311.83000000000004 m -1, 0 a 1,1 0 1,0 2,0 a 1,1 0 1,0 -2,0 M 337.5 311.83000000000004 m -0.5, 0 a 0.5,0.5 0 1,0 1,0 a 0.5,0.5 0 1,0 -1,0  M325.5 317.83000000000004 Q 284.6 317.83000000000004, 243.7 283.67 T 161.89 249.5 M 149.89 249.5 m -1, 0 a 1,1 0 1,0 2,0 a 1,1 0 1,0 -2,0 M 149.89 249.5 m -0.5, 0 a 0.5,0.5 0 1,0 1,0 a 0.5,0.5 0 1,0 -1,0  M149.89 249.5 L149.89 249.5 161.89 249.5 M155.89 255.5 L155.89 255.5 155.89 243.5" id="h2874663856" class="r"></path><path d="M 476.88 342.83000000000004 m -1, 0 a 1,1 0 1,0 2,0 a 1,1 0 1,0 -2,0 M 476.88 342.83000000000004 m -0.5, 0 a 0.5,0.5 0 1,0 1,0 a 0.5,0.5 0 1,0 -1,0  M476.88 342.83000000000004 L476.88 342.83000000000004 488.88 342.83000000000004 M 476.88 348.83000000000004 m -1, 0 a 1,1 0 1,0 2,0 a 1,1 0 1,0 -2,0 M 476.88 348.83000000000004 m -0.5, 0 a 0.5,0.5 0 1,0 1,0 a 0.5,0.5 0 1,0 -1,0  M476.88 348.83000000000004 L476.88 348.83000000000004 483.88 342.83000000000004 476.88 336.83000000000004 M 476.88 336.83000000000004 m -1, 0 a 1,1 0 1,0 2,0 a 1,1 0 1,0 -2,0 M 476.88 336.83000000000004 m -0.5, 0 a 0.5,0.5 0 1,0 1,0 a 0.5,0.5 0 1,0 -1,0  M488.88 342.83000000000004 Q 507.41 342.83000000000004, 525.94 264.5 T 563 186.17 M 575 186.17 m -1, 0 a 1,1 0 1,0 2,0 a 1,1 0 1,0 -2,0 M 575 186.17 m -0.5, 0 a 0.5,0.5 0 1,0 1,0 a 0.5,0.5 0 1,0 -1,0  M575 186.17 L575 186.17 563 186.17 M569 192.17 L569 192.17 569 180.17" id="h1109958615" class="r"></path></g><g class="hrs"></g><g class="ts"><svg width="124.7" height="125" x="12.5" y="-5.83" id="h16875077" class="t"><rect height="40" width="124.7" class="th"></rect><text x="13" y="25" class="tht">Doctors</text><rect height="85" width="124.7" class="t-bg"></rect><text x="13" y="61" class="tf fk">id<tspan x="111.7" class="ty">int</tspan></text><text x="13" y="86" class="tf">name<tspan x="111.7" class="ty">text</tspan></text><text x="13" y="111" class="tf">speciality<tspan x="111.7" class="ty">string</tspan></text></svg><svg width="110.72" height="150" x="39.17" y="192.5" id="h3280351983" class="t"><rect height="40" width="110.72" class="th"></rect><text x="13" y="25" class="tht">Visits</text><rect height="110" width="110.72" class="t-bg"></rect><text x="13" y="61" class="tf fk">id<tspan x="97.72" class="ty">int</tspan></text><text x="13" y="86" class="tf fk">doctor_id<tspan x="97.72" class="ty">int</tspan></text><text x="13" y="111" class="tf fk">patient_id<tspan x="97.72" class="ty">int</tspan></text><text x="13" y="136" class="tf">date<tspan x="97.72" class="ty">date</tspan></text></svg><svg width="127.38" height="150" x="362.5" y="-2.5" id="h3676580549" class="t"><rect height="40" width="127.38" class="th"></rect><text x="13" y="25" class="tht">Patients</text><rect height="110" width="127.38" class="t-bg"></rect><text x="13" y="61" class="tf fk">id<tspan x="114.38" class="ty">int</tspan></text><text x="13" y="86" class="tf">name<tspan x="114.38" class="ty">text</tspan></text><text x="13" y="111" class="tf">insurance<tspan x="114.38" class="ty">string</tspan></text><text x="13" y="136" class="tf">phone<tspan x="114.38" class="ty">int</tspan></text></svg><svg width="139.38" height="150" x="575" y="129.17" id="h1794948770" class="t"><rect height="40" width="139.38" class="th"></rect><text x="13" y="25" class="tht">Diseases</text><rect height="110" width="139.38" class="t-bg"></rect><text x="13" y="61" class="tf fk">id<tspan x="126.38" class="ty">int</tspan></text><text x="13" y="86" class="tf">name<tspan x="126.38" class="ty">text</tspan></text><text x="13" y="111" class="tf">symptoms<tspan x="126.38" class="ty">string</tspan></text><text x="13" y="136" class="tf">descriptions<tspan x="126.38" class="ty">string</tspan></text></svg><svg width="139.38" height="150" x="337.5" y="235.83" id="h2825009366" class="t"><rect height="40" width="139.38" class="th"></rect><text x="13" y="25" class="tht">Diagonoses</text><rect height="110" width="139.38" class="t-bg"></rect><text x="13" y="61" class="tf">id<tspan x="126.38" class="ty">int</tspan></text><text x="13" y="86" class="tf fk">visit_id<tspan x="126.38" class="ty">int</tspan></text><text x="13" y="111" class="tf fk">diseases_id<tspan x="126.38" class="ty">int</tspan></text><text x="13" y="136" class="tf">descriptions<tspan x="126.38" class="ty">string</tspan></text></svg></g></g><text class="qdbd-link" x="10" y="20">www.quickdatabasediagrams.com</text></svg>