<svg class="diagram-root" style="background: #f5f6f6" xmlns="http://www.w3.org/2000/svg" xmlns:xlink="http://www.w3.org/1999/xlink"><style>.diagram-root { font-family: "Helvetica Neue", sans-serif; font-size: 12px; } .t { overflow: visible; } .t-bg { y: 40; fill: #fff;   } .th { fill: #005aa0;   } .tht { fill: #fff; font-size: 14px;  } .tf { fill: #323c46; overflow: visible; } .tf.pk { fill: #005aa0; font-weight: bold; } .tf.fk { font-weight: bold; } .ty { fill: #adb1b5; font-weight: normal; text-anchor: end; } .r { fill: transparent; stroke: #c3c3c3; stroke-width: 1; } .l { stroke: 1; } .i { fill: #c2c7ce; stroke: #c2c7ce; } .i.ix { fill: #afb3b6; stroke: #000; } .fa { fill: transparent; overflow: visible; } .fa .bg.hover { fill: #f7f7f7; } .c { cy: 12; r: 4; stroke: #d2d2dc; fill: #d2d2dc; } .hr { fill: transparent; stroke: #323c46; stroke-opacity: 0.035; stroke-width: 13; } .dc { stroke: #fa5a3c; fill: #fa5a3c; } .x { stroke: white; stroke-width: 1; } .hl .th { fill: #1b9bff; } .hl .tht {  } .fhl .bg { fill: #e7f4ff; } .fhls .bg {  } .r.hl { stroke: #1b9bff; } .dim { opacity: 0.25; }</style><g class="drawing-wrapper" transform="translate(-2.5730769230769184, -0.8366666666666589) scale(1,1)"><g class="rs"><path d="M 244.54 201.77 m -1, 0 a 1,1 0 1,0 2,0 a 1,1 0 1,0 -2,0 M 244.54 201.77 m -0.5, 0 a 0.5,0.5 0 1,0 1,0 a 0.5,0.5 0 1,0 -1,0  M244.54 201.77 L244.54 201.77 232.54 201.77 M 244.54 207.77 m -1, 0 a 1,1 0 1,0 2,0 a 1,1 0 1,0 -2,0 M 244.54 207.77 m -0.5, 0 a 0.5,0.5 0 1,0 1,0 a 0.5,0.5 0 1,0 -1,0  M244.54 207.77 L244.54 207.77 237.54 201.77 244.54 195.77 M 244.54 195.77 m -1, 0 a 1,1 0 1,0 2,0 a 1,1 0 1,0 -2,0 M 244.54 195.77 m -0.5, 0 a 0.5,0.5 0 1,0 1,0 a 0.5,0.5 0 1,0 -1,0  M232.54 201.77 Q 212.5 201.77, 192.46 148.55 T 152.37 95.33 M 140.37 95.33 m -1, 0 a 1,1 0 1,0 2,0 a 1,1 0 1,0 -2,0 M 140.37 95.33 m -0.5, 0 a 0.5,0.5 0 1,0 1,0 a 0.5,0.5 0 1,0 -1,0  M140.37 95.33 L140.37 95.33 152.37 95.33 M146.37 101.33 L146.37 101.33 146.37 89.33" id="h1625374145" class="r"></path><path d="M 363.92 226.77 m -1, 0 a 1,1 0 1,0 2,0 a 1,1 0 1,0 -2,0 M 363.92 226.77 m -0.5, 0 a 0.5,0.5 0 1,0 1,0 a 0.5,0.5 0 1,0 -1,0  M363.92 226.77 L363.92 226.77 375.92 226.77 M 363.92 232.77 m -1, 0 a 1,1 0 1,0 2,0 a 1,1 0 1,0 -2,0 M 363.92 232.77 m -0.5, 0 a 0.5,0.5 0 1,0 1,0 a 0.5,0.5 0 1,0 -1,0  M363.92 232.77 L363.92 232.77 370.92 226.77 363.92 220.77 M 363.92 220.77 m -1, 0 a 1,1 0 1,0 2,0 a 1,1 0 1,0 -2,0 M 363.92 220.77 m -0.5, 0 a 0.5,0.5 0 1,0 1,0 a 0.5,0.5 0 1,0 -1,0  M375.92 226.77 Q 399.99 226.77, 424.05 157.31 T 472.17 87.84 M 484.17 87.84 m -1, 0 a 1,1 0 1,0 2,0 a 1,1 0 1,0 -2,0 M 484.17 87.84 m -0.5, 0 a 0.5,0.5 0 1,0 1,0 a 0.5,0.5 0 1,0 -1,0  M484.17 87.84 L484.17 87.84 472.17 87.84 M478.17 93.84 L478.17 93.84 478.17 81.84" id="h43199263" class="r"></path><path d="M 363.92 251.77 m -1, 0 a 1,1 0 1,0 2,0 a 1,1 0 1,0 -2,0 M 363.92 251.77 m -0.5, 0 a 0.5,0.5 0 1,0 1,0 a 0.5,0.5 0 1,0 -1,0  M363.92 251.77 L363.92 251.77 375.92 251.77 M 363.92 257.77 m -1, 0 a 1,1 0 1,0 2,0 a 1,1 0 1,0 -2,0 M 363.92 257.77 m -0.5, 0 a 0.5,0.5 0 1,0 1,0 a 0.5,0.5 0 1,0 -1,0  M363.92 257.77 L363.92 257.77 370.92 251.77 363.92 245.77 M 363.92 245.77 m -1, 0 a 1,1 0 1,0 2,0 a 1,1 0 1,0 -2,0 M 363.92 245.77 m -0.5, 0 a 0.5,0.5 0 1,0 1,0 a 0.5,0.5 0 1,0 -1,0  M375.92 251.77 Q 404.36 251.77, 432.8 267.71 T 489.67 283.65999999999997 M 501.67 283.65999999999997 m -1, 0 a 1,1 0 1,0 2,0 a 1,1 0 1,0 -2,0 M 501.67 283.65999999999997 m -0.5, 0 a 0.5,0.5 0 1,0 1,0 a 0.5,0.5 0 1,0 -1,0  M501.67 283.65999999999997 L501.67 283.65999999999997 489.67 283.65999999999997 M495.67 289.65999999999997 L495.67 289.65999999999997 495.67 277.65999999999997" id="h749497876" class="r"></path><path d="M 282.19 389.95 m -1, 0 a 1,1 0 1,0 2,0 a 1,1 0 1,0 -2,0 M 282.19 389.95 m -0.5, 0 a 0.5,0.5 0 1,0 1,0 a 0.5,0.5 0 1,0 -1,0  M282.19 389.95 L282.19 389.95 270.19 389.95 M 282.19 395.95 m -1, 0 a 1,1 0 1,0 2,0 a 1,1 0 1,0 -2,0 M 282.19 395.95 m -0.5, 0 a 0.5,0.5 0 1,0 1,0 a 0.5,0.5 0 1,0 -1,0  M282.19 395.95 L282.19 395.95 275.19 389.95 282.19 383.95 M 282.19 383.95 m -1, 0 a 1,1 0 1,0 2,0 a 1,1 0 1,0 -2,0 M 282.19 383.95 m -0.5, 0 a 0.5,0.5 0 1,0 1,0 a 0.5,0.5 0 1,0 -1,0  M270.19 389.95 Q 238.13 389.95, 206.06 359.1 T 141.93 328.25 M 129.93 328.25 m -1, 0 a 1,1 0 1,0 2,0 a 1,1 0 1,0 -2,0 M 129.93 328.25 m -0.5, 0 a 0.5,0.5 0 1,0 1,0 a 0.5,0.5 0 1,0 -1,0  M129.93 328.25 L129.93 328.25 141.93 328.25 M135.93 334.25 L135.93 334.25 135.93 322.25" id="h2561147591" class="r"></path><path d="M 389.56 414.95 m -1, 0 a 1,1 0 1,0 2,0 a 1,1 0 1,0 -2,0 M 389.56 414.95 m -0.5, 0 a 0.5,0.5 0 1,0 1,0 a 0.5,0.5 0 1,0 -1,0  M389.56 414.95 L389.56 414.95 401.56 414.95 M 389.56 420.95 m -1, 0 a 1,1 0 1,0 2,0 a 1,1 0 1,0 -2,0 M 389.56 420.95 m -0.5, 0 a 0.5,0.5 0 1,0 1,0 a 0.5,0.5 0 1,0 -1,0  M389.56 420.95 L389.56 420.95 396.56 414.95 389.56 408.95 M 389.56 408.95 m -1, 0 a 1,1 0 1,0 2,0 a 1,1 0 1,0 -2,0 M 389.56 408.95 m -0.5, 0 a 0.5,0.5 0 1,0 1,0 a 0.5,0.5 0 1,0 -1,0  M401.56 414.95 C 451.56 414.95, 466.944 101.77000000000001, 375.92 101.77000000000001 M 363.92 101.77000000000001 m -1, 0 a 1,1 0 1,0 2,0 a 1,1 0 1,0 -2,0 M 363.92 101.77000000000001 m -0.5, 0 a 0.5,0.5 0 1,0 1,0 a 0.5,0.5 0 1,0 -1,0  M363.92 101.77000000000001 L363.92 101.77000000000001 375.92 101.77000000000001 M369.92 107.77000000000001 L369.92 107.77000000000001 369.92 95.77000000000001" id="h883084757" class="r"></path></g><g class="hrs"></g><g class="ts"><svg width="105.36" height="100" x="35.01" y="38.33" id="h3010508784" class="t"><rect height="40" width="105.36" class="th"></rect><text x="13" y="25" class="tht">Teams</text><rect height="60" width="105.36" class="t-bg"></rect><text x="13" y="61" class="tf fk">id<tspan x="92.36" class="ty">int</tspan></text><text x="13" y="86" class="tf">name<tspan x="92.36" class="ty">string</tspan></text></svg><svg width="105.36" height="125" x="24.57" y="271.25" id="h4103274130" class="t"><rect height="40" width="105.36" class="th"></rect><text x="13" y="25" class="tht">Players</text><rect height="85" width="105.36" class="t-bg"></rect><text x="13" y="61" class="tf fk">id<tspan x="92.36" class="ty">int</tspan></text><text x="13" y="86" class="tf">name<tspan x="92.36" class="ty">string</tspan></text><text x="13" y="111" class="tf">team_id<tspan x="92.36" class="ty">int</tspan></text></svg><svg width="105.36" height="100" x="501.67" y="226.66" id="h332749422" class="t"><rect height="40" width="105.36" class="th"></rect><text x="13" y="25" class="tht">Referees</text><rect height="60" width="105.36" class="t-bg"></rect><text x="13" y="61" class="tf fk">id<tspan x="92.36" class="ty">int</tspan></text><text x="13" y="86" class="tf">name<tspan x="92.36" class="ty">string</tspan></text></svg><svg width="119.38" height="225" x="244.54" y="44.77" id="h3829905542" class="t"><rect height="40" width="119.38" class="th"></rect><text x="13" y="25" class="tht">Matches</text><rect height="185" width="119.38" class="t-bg"></rect><text x="13" y="61" class="tf fk">id<tspan x="106.38" class="ty">int</tspan></text><text x="13" y="86" class="tf">location<tspan x="106.38" class="ty">string</tspan></text><text x="13" y="111" class="tf">date<tspan x="106.38" class="ty">date</tspan></text><text x="13" y="136" class="tf">time<tspan x="106.38" class="ty">time</tspan></text><text x="13" y="161" class="tf fk">team_id<tspan x="106.38" class="ty">int</tspan></text><text x="13" y="186" class="tf fk">seasons_id<tspan x="106.38" class="ty">int</tspan></text><text x="13" y="211" class="tf fk">referees_id<tspan x="106.38" class="ty">int</tspan></text></svg><svg width="107.37" height="125" x="282.19" y="307.95" id="h2207534861" class="t"><rect height="40" width="107.37" class="th"></rect><text x="13" y="25" class="tht">Goals</text><rect height="85" width="107.37" class="t-bg"></rect><text x="13" y="61" class="tf">id<tspan x="94.37" class="ty">int</tspan></text><text x="13" y="86" class="tf fk">player_id<tspan x="94.37" class="ty">int</tspan></text><text x="13" y="111" class="tf fk">match_id<tspan x="94.37" class="ty">int</tspan></text></svg><svg width="122.72" height="125" x="484.17" y="30.84" id="h447324019" class="t"><rect height="40" width="122.72" class="th"></rect><text x="13" y="25" class="tht">Seasons</text><rect height="85" width="122.72" class="t-bg"></rect><text x="13" y="61" class="tf fk">id<tspan x="109.72" class="ty">int</tspan></text><text x="13" y="86" class="tf">start_date<tspan x="109.72" class="ty">date</tspan></text><text x="13" y="111" class="tf">end_date<tspan x="109.72" class="ty">date</tspan></text></svg></g></g><text class="qdbd-link" x="10" y="20">www.quickdatabasediagrams.com</text></svg>