<svg class="diagram-root" style="background: #f5f6f6" xmlns="http://www.w3.org/2000/svg" xmlns:xlink="http://www.w3.org/1999/xlink"><style>.diagram-root { font-family: "Helvetica Neue", sans-serif; font-size: 12px; } .t { overflow: visible; } .t-bg { y: 40; fill: #fff;   } .th { fill: #005aa0;   } .tht { fill: #fff; font-size: 14px;  } .tf { fill: #323c46; overflow: visible; } .tf.pk { fill: #005aa0; font-weight: bold; } .tf.fk { font-weight: bold; } .ty { fill: #adb1b5; font-weight: normal; text-anchor: end; } .r { fill: transparent; stroke: #c3c3c3; stroke-width: 1; } .l { stroke: 1; } .i { fill: #c2c7ce; stroke: #c2c7ce; } .i.ix { fill: #afb3b6; stroke: #000; } .fa { fill: transparent; overflow: visible; } .fa .bg.hover { fill: #f7f7f7; } .c { cy: 12; r: 4; stroke: #d2d2dc; fill: #d2d2dc; } .hr { fill: transparent; stroke: #323c46; stroke-opacity: 0.035; stroke-width: 13; } .dc { stroke: #fa5a3c; fill: #fa5a3c; } .x { stroke: white; stroke-width: 1; } .hl .th { fill: #1b9bff; } .hl .tht {  } .fhl .bg { fill: #e7f4ff; } .fhls .bg {  } .r.hl { stroke: #1b9bff; } .dim { opacity: 0.25; }</style><g class="drawing-wrapper" transform="translate(-65.49999999999997, 0.8333333333333464) scale(1,1)"><g class="rs"><path d="M 336.67 214.5 m -1, 0 a 1,1 0 1,0 2,0 a 1,1 0 1,0 -2,0 M 336.67 214.5 m -0.5, 0 a 0.5,0.5 0 1,0 1,0 a 0.5,0.5 0 1,0 -1,0  M336.67 214.5 L336.67 214.5 324.67 214.5 M 336.67 220.5 m -1, 0 a 1,1 0 1,0 2,0 a 1,1 0 1,0 -2,0 M 336.67 220.5 m -0.5, 0 a 0.5,0.5 0 1,0 1,0 a 0.5,0.5 0 1,0 -1,0  M336.67 220.5 L336.67 220.5 329.67 214.5 336.67 208.5 M 336.67 208.5 m -1, 0 a 1,1 0 1,0 2,0 a 1,1 0 1,0 -2,0 M 336.67 208.5 m -0.5, 0 a 0.5,0.5 0 1,0 1,0 a 0.5,0.5 0 1,0 -1,0  M324.67 214.5 Q 292.22 214.5, 259.77 150.34 T 194.86 86.17 M 182.86 86.17 m -1, 0 a 1,1 0 1,0 2,0 a 1,1 0 1,0 -2,0 M 182.86 86.17 m -0.5, 0 a 0.5,0.5 0 1,0 1,0 a 0.5,0.5 0 1,0 -1,0  M182.86 86.17 L182.86 86.17 194.86 86.17 M188.86 92.17 L188.86 92.17 188.86 80.17" id="h3559049542" class="r"></path><path d="M 336.67 239.5 m -1, 0 a 1,1 0 1,0 2,0 a 1,1 0 1,0 -2,0 M 336.67 239.5 m -0.5, 0 a 0.5,0.5 0 1,0 1,0 a 0.5,0.5 0 1,0 -1,0  M336.67 239.5 L336.67 239.5 324.67 239.5 M 336.67 245.5 m -1, 0 a 1,1 0 1,0 2,0 a 1,1 0 1,0 -2,0 M 336.67 245.5 m -0.5, 0 a 0.5,0.5 0 1,0 1,0 a 0.5,0.5 0 1,0 -1,0  M336.67 245.5 L336.67 245.5 329.67 239.5 336.67 233.5 M 336.67 233.5 m -1, 0 a 1,1 0 1,0 2,0 a 1,1 0 1,0 -2,0 M 336.67 233.5 m -0.5, 0 a 0.5,0.5 0 1,0 1,0 a 0.5,0.5 0 1,0 -1,0  M324.67 239.5 Q 294.72 239.5, 264.77 280.34 T 204.86 321.17 M 192.86 321.17 m -1, 0 a 1,1 0 1,0 2,0 a 1,1 0 1,0 -2,0 M 192.86 321.17 m -0.5, 0 a 0.5,0.5 0 1,0 1,0 a 0.5,0.5 0 1,0 -1,0  M192.86 321.17 L192.86 321.17 204.86 321.17 M198.86 327.17 L198.86 327.17 198.86 315.17" id="h4123789742" class="r"></path><path d="M 476.05 264.5 m -1, 0 a 1,1 0 1,0 2,0 a 1,1 0 1,0 -2,0 M 476.05 264.5 m -0.5, 0 a 0.5,0.5 0 1,0 1,0 a 0.5,0.5 0 1,0 -1,0  M476.05 264.5 L476.05 264.5 488.05 264.5 M 476.05 270.5 m -1, 0 a 1,1 0 1,0 2,0 a 1,1 0 1,0 -2,0 M 476.05 270.5 m -0.5, 0 a 0.5,0.5 0 1,0 1,0 a 0.5,0.5 0 1,0 -1,0  M476.05 270.5 L476.05 270.5 483.05 264.5 476.05 258.5 M 476.05 258.5 m -1, 0 a 1,1 0 1,0 2,0 a 1,1 0 1,0 -2,0 M 476.05 258.5 m -0.5, 0 a 0.5,0.5 0 1,0 1,0 a 0.5,0.5 0 1,0 -1,0  M488.05 264.5 Q 508.87 264.5, 529.69 215.34 T 571.33 166.17000000000002 M 583.33 166.17000000000002 m -1, 0 a 1,1 0 1,0 2,0 a 1,1 0 1,0 -2,0 M 583.33 166.17000000000002 m -0.5, 0 a 0.5,0.5 0 1,0 1,0 a 0.5,0.5 0 1,0 -1,0  M583.33 166.17000000000002 L583.33 166.17000000000002 571.33 166.17000000000002 M577.33 172.17000000000002 L577.33 172.17000000000002 577.33 160.17000000000002" id="h2626308708" class="r"></path></g><g class="hrs"></g><g class="ts"><svg width="95.36" height="100" x="87.5" y="29.17" id="h41485699" class="t"><rect height="40" width="95.36" class="th"></rect><text x="13" y="25" class="tht">Regions</text><rect height="60" width="95.36" class="t-bg"></rect><text x="13" y="61" class="tf fk">id<tspan x="82.36" class="ty">int</tspan></text><text x="13" y="86" class="tf">name<tspan x="82.36" class="ty">text</tspan></text></svg><svg width="139.38" height="200" x="336.67" y="82.5" id="h1611266215" class="t"><rect height="40" width="139.38" class="th"></rect><text x="13" y="25" class="tht">Posts</text><rect height="160" width="139.38" class="t-bg"></rect><text x="13" y="61" class="tf">id<tspan x="126.38" class="ty">int</tspan></text><text x="13" y="86" class="tf">title<tspan x="126.38" class="ty">text</tspan></text><text x="13" y="111" class="tf">descriptions<tspan x="126.38" class="ty">string</tspan></text><text x="13" y="136" class="tf fk">region_id<tspan x="126.38" class="ty">int</tspan></text><text x="13" y="161" class="tf fk">user_id<tspan x="126.38" class="ty">int</tspan></text><text x="13" y="186" class="tf fk">catagories_id<tspan x="126.38" class="ty">int</tspan></text></svg><svg width="95.36" height="100" x="97.5" y="264.17" id="h3889921393" class="t"><rect height="40" width="95.36" class="th"></rect><text x="13" y="25" class="tht">Users</text><rect height="60" width="95.36" class="t-bg"></rect><text x="13" y="61" class="tf fk">id<tspan x="82.36" class="ty">int</tspan></text><text x="13" y="86" class="tf">name<tspan x="82.36" class="ty">text</tspan></text></svg><svg width="95.36" height="100" x="583.33" y="109.17" id="h1647953095" class="t"><rect height="40" width="95.36" class="th"></rect><text x="13" y="25" class="tht">Catagories</text><rect height="60" width="95.36" class="t-bg"></rect><text x="13" y="61" class="tf fk">id<tspan x="82.36" class="ty">int</tspan></text><text x="13" y="86" class="tf">name<tspan x="82.36" class="ty">text</tspan></text></svg></g></g><text class="qdbd-link" x="10" y="20">www.quickdatabasediagrams.com</text></svg>